<svg width="160" height="160" viewBox="0 0 160 160" fill="none" xmlns="http://www.w3.org/2000/svg">
<path d="M44.2338 89.7375L40.625 87.66L80.815 18.3725L84.4188 20.4425L44.2338 89.7375Z" fill="#E434AA"/>
<path d="M39.8 82.125H120.175V86.275H39.8V82.125Z" fill="#E434AA"/>
<path d="M81.5913 107.563L41.3913 84.4575L43.4713 80.8638L83.6763 103.97L81.5913 107.563ZM116.519 47.3388L76.3125 24.2338L78.3975 20.645L118.599 43.75L116.519 47.3388Z" fill="#E434AA"/>
<path d="M43.4812 47.325L41.4012 43.735L81.6062 20.63L83.6862 24.2188L43.4812 47.325Z" fill="#E434AA"/>
<path d="M115.776 89.7375L75.5875 20.4425L79.195 18.3725L119.386 87.66L115.776 89.7375ZM42.9875 40.9875H47.1537V87.1975H42.9875V40.9875Z" fill="#E434AA"/>
<path d="M112.846 40.9875H117.011V87.1975H112.846V40.9875Z" fill="#E434AA"/>
<path d="M80.8838 105.806L79.0625 102.671L114.029 82.5738L115.85 85.7075L80.8838 105.806Z" fill="#E434AA"/>
<path d="M122.534 88.545C120.127 92.72 114.756 94.1412 110.566 91.7437C109.571 91.1746 108.697 90.4143 107.997 89.5065C107.296 88.5987 106.781 87.5614 106.483 86.4541C106.184 85.3469 106.108 84.1915 106.257 83.0545C106.406 81.9175 106.779 80.8212 107.354 79.8287C109.761 75.6537 115.131 74.2338 119.321 76.6313C123.54 79.0525 124.971 84.375 122.534 88.5437M52.6225 48.355C50.215 52.525 44.8437 53.95 40.6537 51.5525C39.6583 50.9827 38.7852 50.2219 38.0845 49.3138C37.3839 48.4057 36.8696 47.3681 36.5711 46.2606C36.2726 45.1531 36.1958 43.9976 36.3451 42.8604C36.4944 41.7231 36.8669 40.6266 37.4412 39.6338C39.8487 35.4638 45.22 34.0375 49.4087 36.435C53.5987 38.8625 55.0287 44.18 52.6212 48.355M37.4662 88.545C35.0537 84.375 36.485 79.0525 40.6787 76.6313C44.8687 74.2338 50.215 75.6537 52.6462 79.8287C55.0587 83.9987 53.6275 89.3212 49.4337 91.7437C45.22 94.1412 39.8725 92.7187 37.4662 88.5437M107.377 48.355C104.971 44.18 106.402 38.8625 110.59 36.435C114.78 34.0375 120.127 35.4638 122.559 39.6338C124.971 43.8088 123.54 49.1263 119.346 51.5525C115.156 53.95 109.785 52.525 107.377 48.355ZM80 113.003C75.1562 113.003 71.24 109.106 71.24 104.283C71.24 99.4625 75.1562 95.5662 80 95.5662C84.8437 95.5662 88.76 99.4625 88.76 104.283C88.76 109.078 84.8437 113.003 80 113.003M80 32.6175C75.1562 32.6175 71.24 28.7213 71.24 23.8963C71.24 19.0775 75.1562 15.1813 80 15.1813C84.8437 15.1813 88.76 19.0775 88.76 23.8963C88.76 28.7213 84.8437 32.6175 80 32.6175M133.281 151.885C133.178 151.89 133.075 151.874 132.978 151.838C132.881 151.802 132.793 151.747 132.719 151.675C132.647 151.601 132.59 151.513 132.554 151.416C132.517 151.319 132.5 151.216 132.505 151.112V128.033C132.505 127.798 132.578 127.608 132.72 127.466C132.794 127.395 132.882 127.339 132.979 127.303C133.075 127.267 133.178 127.251 133.281 127.256H133.956C134.19 127.256 134.38 127.324 134.521 127.466C134.593 127.541 134.648 127.63 134.684 127.728C134.72 127.825 134.736 127.929 134.731 128.033V149.775H146.929C147.187 149.775 147.388 149.844 147.529 149.985C147.671 150.128 147.739 150.327 147.739 150.581V151.114C147.744 151.217 147.728 151.32 147.692 151.416C147.656 151.513 147.6 151.601 147.529 151.675C147.388 151.816 147.187 151.885 146.929 151.885H133.281ZM125.118 154.17C124.991 154.171 124.866 154.145 124.751 154.094C124.635 154.043 124.532 153.967 124.449 153.873C124.29 153.708 124.136 153.538 123.989 153.364L122.431 151.216C121.02 151.895 119.37 152.236 117.485 152.236C115.527 152.236 113.867 151.89 112.5 151.201C111.132 150.507 110.082 149.439 109.355 147.998C108.622 146.553 108.223 144.731 108.155 142.525C108.13 141.47 108.115 140.484 108.115 139.57C108.115 138.658 108.13 137.67 108.154 136.616C108.223 134.434 108.647 132.623 109.424 131.176C110.2 129.736 111.279 128.663 112.661 127.959C114.037 127.256 115.645 126.904 117.486 126.904C119.321 126.904 120.927 127.256 122.31 127.959C123.686 128.663 124.77 129.736 125.561 131.176C126.349 132.623 126.768 134.434 126.816 136.616C126.86 137.6 126.882 138.585 126.885 139.57C126.885 140.483 126.86 141.47 126.816 142.525C126.699 145.879 125.835 148.345 124.234 149.918L126.499 153.08C126.527 153.118 126.55 153.16 126.567 153.204C126.592 153.261 126.601 153.35 126.601 153.466C126.602 153.559 126.584 153.65 126.548 153.735C126.512 153.82 126.458 153.897 126.391 153.96C126.328 154.027 126.251 154.08 126.167 154.116C126.082 154.152 125.991 154.17 125.899 154.17H125.118ZM117.485 150.128C119.511 150.128 121.176 149.516 122.485 148.296C123.794 147.075 124.492 145.092 124.59 142.349C124.634 141.294 124.659 140.366 124.659 139.57C124.659 138.775 124.634 137.846 124.59 136.793C124.54 134.961 124.204 133.471 123.579 132.324C122.954 131.173 122.119 130.336 121.069 129.805C120.025 129.278 118.827 129.014 117.485 129.014C116.162 129.014 114.98 129.276 113.931 129.805C112.881 130.338 112.046 131.173 111.421 132.324C110.796 133.471 110.449 134.961 110.381 136.793C110.356 137.846 110.341 138.775 110.341 139.57C110.341 140.366 110.356 141.295 110.381 142.349C110.474 145.092 111.181 147.075 112.5 148.296C113.819 149.516 115.479 150.128 117.485 150.128ZM88.5688 151.885C88.4658 151.89 88.3629 151.874 88.2664 151.838C88.1699 151.802 88.0818 151.746 88.0075 151.675C87.9351 151.601 87.8787 151.513 87.8417 151.416C87.8047 151.319 87.788 151.216 87.7925 151.112V127.675C87.7925 127.441 87.8662 127.256 88.0075 127.114C88.0819 127.042 88.1702 126.987 88.267 126.95C88.3637 126.914 88.4669 126.898 88.57 126.904H89.17C89.4087 126.904 89.595 126.973 89.7362 127.114C89.8086 127.188 89.8651 127.276 89.902 127.373C89.939 127.469 89.9558 127.573 89.9512 127.676V136.015C90.5805 135.199 91.3679 134.518 92.2663 134.014C93.1738 133.496 94.3787 133.237 95.8887 133.237C97.49 133.237 98.8287 133.584 99.8975 134.277C100.972 134.965 101.773 135.902 102.305 137.09C102.833 138.277 103.1 139.619 103.1 141.119V151.114C103.105 151.217 103.088 151.32 103.051 151.416C103.014 151.513 102.958 151.601 102.886 151.675C102.811 151.747 102.722 151.803 102.624 151.839C102.527 151.875 102.423 151.891 102.319 151.885H101.719C101.615 151.89 101.511 151.874 101.414 151.838C101.317 151.802 101.228 151.747 101.152 151.675C101.081 151.601 101.025 151.512 100.989 151.416C100.953 151.319 100.937 151.216 100.942 151.112V141.294C100.942 139.419 100.484 137.944 99.565 136.88C98.6425 135.81 97.3 135.279 95.5325 135.279C93.8625 135.279 92.515 135.81 91.4888 136.879C90.4638 137.944 89.9512 139.419 89.9512 141.294V151.114C89.9556 151.217 89.9388 151.32 89.9018 151.417C89.8648 151.513 89.8085 151.601 89.7362 151.675C89.6613 151.747 89.5723 151.803 89.4749 151.839C89.3775 151.875 89.2737 151.891 89.17 151.885H88.5688ZM68.0375 158.569C67.9338 158.574 67.83 158.559 67.7326 158.523C67.6352 158.486 67.5462 158.431 67.4712 158.359C67.399 158.285 67.3427 158.197 67.3057 158.1C67.2687 158.004 67.2519 157.901 67.2562 157.798V134.365C67.2562 134.131 67.3287 133.94 67.4712 133.799C67.5462 133.727 67.6352 133.671 67.7326 133.635C67.83 133.599 67.9338 133.583 68.0375 133.589H68.6375C68.8725 133.589 69.0625 133.657 69.2037 133.799C69.2753 133.874 69.3308 133.963 69.3669 134.06C69.403 134.158 69.4189 134.261 69.4137 134.365V136.015C70.005 135.22 70.7762 134.556 71.7287 134.027C72.685 133.501 73.8912 133.237 75.3512 133.237C76.7437 133.237 77.91 133.476 78.8525 133.96C79.7579 134.408 80.5444 135.063 81.1475 135.874C81.7387 136.674 82.1725 137.564 82.4562 138.549C82.7387 139.536 82.89 140.543 82.915 141.578C82.94 141.929 82.9487 142.315 82.9487 142.74C82.9487 143.159 82.94 143.545 82.915 143.896C82.8928 144.921 82.7386 145.938 82.4562 146.924C82.1725 147.911 81.7387 148.799 81.1475 149.599C80.5446 150.409 79.7581 151.066 78.8525 151.514C77.91 151.997 76.7437 152.236 75.3525 152.236C73.8912 152.236 72.685 151.968 71.7275 151.426C70.7775 150.889 70.005 150.23 69.415 149.458V157.798C69.4202 157.901 69.4041 158.004 69.3677 158.101C69.3314 158.197 69.2756 158.286 69.2037 158.36C69.1284 158.431 69.0394 158.487 68.942 158.522C68.8447 158.558 68.7411 158.574 68.6375 158.569H68.0375ZM75.1412 150.195C76.5287 150.195 77.6275 149.893 78.4287 149.283C79.2287 148.672 79.8313 147.84 80.1612 146.89C80.5125 145.903 80.7125 144.849 80.7612 143.721C80.7808 143.065 80.7808 142.409 80.7612 141.753C80.7215 140.672 80.5192 139.604 80.1612 138.584C79.8296 137.634 79.2268 136.802 78.4275 136.191C77.6275 135.581 76.5275 135.279 75.1412 135.279C73.7987 135.279 72.715 135.596 71.89 136.225C71.0803 136.84 70.4512 137.662 70.0687 138.604C69.688 139.515 69.4664 140.484 69.4137 141.47C69.3887 141.821 69.38 142.28 69.38 142.841C69.38 143.404 69.39 143.862 69.4137 144.214C69.4387 145.151 69.6537 146.079 70.0687 146.993C70.4785 147.909 71.1259 148.7 71.9437 149.283C72.7787 149.893 73.8437 150.195 75.1412 150.195V150.195ZM53.2275 152.238C52.1437 152.249 51.0722 152.008 50.0975 151.534C49.1874 151.098 48.3943 150.452 47.7837 149.649C47.2008 148.887 46.8897 147.952 46.9 146.993C46.9 145.4 47.55 144.121 48.8425 143.159C50.1362 142.196 51.8212 141.578 53.8962 141.294L59.4825 140.522V139.288C59.4825 138.046 59.0962 137.065 58.335 136.352C57.5687 135.635 56.3475 135.277 54.6725 135.277C53.4475 135.277 52.46 135.518 51.7037 136.001C50.9525 136.48 50.435 137.109 50.1512 137.881C50.0337 138.231 49.81 138.409 49.4775 138.409H48.915C48.6325 138.409 48.4325 138.335 48.31 138.179C48.1916 138.023 48.1299 137.832 48.135 137.636C48.135 137.305 48.2612 136.895 48.5062 136.406C48.755 135.912 49.1362 135.425 49.6587 134.941C50.1762 134.462 50.845 134.058 51.67 133.73C52.495 133.404 53.495 133.237 54.6725 133.237C56.065 133.237 57.2125 133.423 58.12 133.8C59.0287 134.175 59.7362 134.662 60.245 135.259C60.7475 135.859 61.1075 136.524 61.3187 137.246C61.5337 137.974 61.6362 138.691 61.6362 139.395V151.114C61.6414 151.217 61.6254 151.32 61.5893 151.416C61.5532 151.513 61.4977 151.601 61.4262 151.675C61.351 151.747 61.262 151.802 61.1647 151.838C61.0673 151.874 60.9637 151.89 60.86 151.885H60.2587C60.1551 151.89 60.0514 151.874 59.9541 151.838C59.8567 151.802 59.7677 151.747 59.6925 151.675C59.6209 151.601 59.5653 151.512 59.5292 151.416C59.4931 151.319 59.4772 151.216 59.4825 151.112V149.458C59.1462 149.936 58.7414 150.362 58.2812 150.722C57.7637 151.147 57.0937 151.504 56.2837 151.798C55.4687 152.09 54.4525 152.236 53.2275 152.236V152.238ZM53.5787 150.195C54.6625 150.195 55.6537 149.961 56.5475 149.493C57.4412 149.024 58.1537 148.301 58.6862 147.33C59.2187 146.357 59.4825 145.131 59.4825 143.652V142.456L54.9225 143.091C52.9887 143.345 51.5287 143.794 50.5375 144.424C49.55 145.059 49.0525 145.855 49.0525 146.816C49.0525 147.592 49.2775 148.228 49.7275 148.721C50.1762 149.209 50.7475 149.58 51.44 149.824C52.1337 150.074 52.8462 150.195 53.5787 150.195V150.195ZM37.0362 151.885C36.9326 151.89 36.8289 151.874 36.7316 151.838C36.6342 151.802 36.5452 151.747 36.47 151.675C36.3993 151.6 36.3444 151.511 36.3083 151.415C36.2722 151.318 36.2558 151.216 36.26 151.112V134.4C36.26 134.165 36.3325 133.97 36.47 133.819C36.5427 133.742 36.6307 133.682 36.7284 133.643C36.826 133.603 36.9309 133.585 37.0362 133.589H37.6025C37.8375 133.589 38.0325 133.668 38.1887 133.819C38.2643 133.895 38.3236 133.986 38.3629 134.086C38.4022 134.186 38.4208 134.293 38.4175 134.4V136.016C38.8123 135.222 39.4582 134.58 40.255 134.19C41.055 133.79 42.0462 133.59 43.2225 133.59H44.5312C44.7662 133.59 44.9562 133.657 45.0975 133.799C45.169 133.874 45.2245 133.963 45.2606 134.06C45.2967 134.158 45.3127 134.261 45.3075 134.365V134.853C45.3075 135.093 45.2387 135.277 45.0975 135.42C45.0223 135.492 44.9333 135.547 44.8359 135.583C44.7386 135.619 44.6349 135.635 44.5312 135.63H43.0125C41.5962 135.63 40.4787 136.04 39.6537 136.86C38.8287 137.681 38.4175 138.799 38.4175 140.205V151.114C38.4216 151.218 38.4033 151.322 38.3639 151.419C38.3244 151.516 38.2647 151.603 38.1887 151.675C38.0276 151.818 37.8176 151.893 37.6025 151.885H37.0362ZM21.7337 152.238C19.7075 152.238 18.0025 151.846 16.6262 151.06C15.274 150.3 14.179 149.154 13.4812 147.769C12.7587 146.362 12.3687 144.741 12.2937 142.915C12.27 141.855 12.2612 140.743 12.2612 139.57C12.2612 138.399 12.27 137.285 12.295 136.225C12.3687 134.375 12.7587 132.75 13.4825 131.352C14.1879 129.972 15.289 128.833 16.645 128.081C18.0325 127.294 19.7325 126.904 21.7325 126.904C23.36 126.904 24.7512 127.144 25.9037 127.628C27.06 128.105 28.0037 128.706 28.73 129.419C29.4625 130.136 30.005 130.855 30.3562 131.581C30.7125 132.31 30.8987 132.919 30.9225 133.413C30.9386 133.505 30.931 133.6 30.9004 133.689C30.8698 133.778 30.8172 133.858 30.7475 133.921C30.5911 134.057 30.3881 134.127 30.1812 134.116H29.4037C29.19 134.116 29.0375 134.062 28.945 133.96C28.8475 133.852 28.755 133.673 28.6625 133.413C28.403 132.646 28 131.935 27.475 131.319C26.925 130.65 26.1812 130.097 25.25 129.669C24.3212 129.234 23.145 129.014 21.7337 129.014C19.6337 129.014 17.9337 129.585 16.6262 130.722C15.3175 131.86 14.6187 133.755 14.5212 136.406C14.4529 138.517 14.4529 140.628 14.5212 142.739C14.6187 145.366 15.3175 147.251 16.6262 148.404C17.935 149.551 19.6337 150.128 21.7337 150.128C23.125 150.128 24.3712 149.864 25.4787 149.336C26.5814 148.815 27.4958 147.965 28.0962 146.904C28.73 145.816 29.0475 144.424 29.0475 142.739V140.942H22.9C22.7947 140.947 22.6897 140.928 22.5921 140.888C22.4945 140.849 22.4064 140.789 22.3337 140.713C22.1904 140.554 22.115 140.345 22.1237 140.131V139.639C22.1237 139.385 22.1925 139.185 22.3337 139.043C22.409 138.971 22.498 138.915 22.5953 138.879C22.6926 138.843 22.7963 138.827 22.9 138.833H30.4637C30.7225 138.833 30.9225 138.901 31.0637 139.043C31.2062 139.185 31.275 139.385 31.275 139.639V142.739C31.275 144.614 30.9037 146.27 30.1612 147.701C29.4355 149.114 28.3025 150.277 26.9087 151.04C25.4837 151.836 23.7587 152.236 21.7337 152.236V152.238Z" fill="#E434AA"/>
</svg>
