<svg width="310" height="160" viewBox="0 0 310 160" fill="none" xmlns="http://www.w3.org/2000/svg">
<path d="M51.542 80.6607C51.542 84.7376 50.3976 88.1717 48.1005 90.9516C45.7035 93.8643 42.5887 95.3265 38.7758 95.3265C34.9528 95.3265 31.8482 93.8643 29.451 90.9516C27.153 88.1717 26 84.7376 26 80.6607C26 76.5725 27.153 73.1396 29.451 70.3697C31.8748 67.4842 34.9897 66.0422 38.7758 66.0422C42.5887 66.0422 45.7035 67.4842 48.1005 70.3697C50.3976 73.1396 51.542 76.5725 51.542 80.6607ZM43.9505 80.6607C43.9505 78.8141 43.5333 77.2554 42.6979 75.9952C41.7632 74.5628 40.4552 73.8512 38.7758 73.8512C37.0958 73.8512 35.7883 74.5628 34.8527 75.9952C34.0087 77.2554 33.591 78.8141 33.591 80.6607C33.591 82.4971 34.0087 84.0744 34.8527 85.3725C35.7883 86.8049 37.0958 87.5176 38.7758 87.5176C40.4552 87.5176 41.7632 86.8049 42.6979 85.3725C43.5333 84.0744 43.9505 82.4971 43.9505 80.6607ZM78.9905 80.6607C78.9905 84.4689 77.9552 87.7963 75.8757 90.643C73.6511 93.7588 70.7819 95.3265 67.2953 95.3265C64.8342 95.3265 62.7465 94.5669 61.0394 93.0669C61.0394 93.4123 61.0757 94.2493 61.1486 95.5873C61.2211 96.9322 61.2569 98.0287 61.2569 98.8944C61.2569 103.676 59.9131 106.06 57.2261 106.06C56.127 106.06 55.2286 105.646 54.5109 104.829C53.8028 104.002 53.4484 103.01 53.4484 101.838V70.745C53.4484 69.61 53.8119 68.6287 54.5381 67.8024C55.2643 66.9846 56.1637 66.5721 57.2351 66.5721C58.8507 66.5721 60.0314 67.4261 60.7762 69.1297C62.3651 67.0716 64.5353 66.0422 67.2862 66.0422C70.7819 66.0422 73.6421 67.5801 75.8757 70.6682C77.9462 73.525 78.9905 76.8524 78.9905 80.6607ZM71.399 80.6607C71.399 78.8141 70.9732 77.2554 70.1378 75.9952C69.2016 74.5628 67.8947 73.8512 66.2146 73.8512C64.5353 73.8512 63.2278 74.5628 62.2921 75.9952C61.4567 77.2554 61.0394 78.8141 61.0394 80.6607C61.0394 82.4971 61.4567 84.0744 62.2921 85.3725C63.2278 86.8049 64.5353 87.5176 66.2146 87.5176C67.8947 87.5176 69.2016 86.8049 70.1378 85.3725C70.9732 84.0744 71.399 82.4971 71.399 80.6607ZM106.611 79.796C106.611 81.141 106.311 82.0643 105.712 82.5846C105.113 83.0936 104.178 83.3533 102.916 83.3533H89.2137C89.2137 84.8922 89.8951 86.0746 91.2569 86.9008C92.3556 87.5464 93.6994 87.8742 95.2882 87.8742C96.5238 87.8742 98.0035 87.4398 99.7377 86.5852C101.472 85.719 102.588 85.2952 103.071 85.2952C103.951 85.2952 104.695 85.6322 105.313 86.3246C105.921 87.008 106.23 87.8348 106.23 88.7873C106.23 90.9884 104.678 92.7023 101.571 93.9326C99.2017 94.8553 96.7956 95.3265 94.3355 95.3265C90.3767 95.3265 87.1803 93.9326 84.738 91.1537C82.295 88.3737 81.07 84.8826 81.07 80.6607C81.07 76.6397 82.3408 73.2067 84.8829 70.3419C87.4159 67.4746 90.5675 66.0422 94.326 66.0422C97.8217 66.0422 100.745 67.3983 103.089 70.1101C105.43 72.8229 106.611 76.0539 106.611 79.796ZM99.0205 77.7751C98.9838 76.5437 98.4484 75.4285 97.4131 74.4179C96.3778 73.4087 95.2797 72.9093 94.1171 72.9093C92.9188 72.9093 91.8015 73.4087 90.7667 74.4179C89.732 75.4285 89.2137 76.5437 89.2137 77.7751H99.0205ZM132.116 90.5748C132.116 91.7492 131.762 92.7391 131.055 93.5663C130.337 94.3846 129.438 94.7983 128.339 94.7983C125.688 94.7983 124.362 92.5668 124.362 88.1141C124.362 87.258 124.417 85.912 124.525 84.0558C124.644 82.2087 124.699 80.8531 124.699 79.997C124.699 75.2739 123.255 72.9093 120.376 72.9093C117.498 72.9093 116.063 75.2739 116.063 79.997C116.063 80.8531 116.108 82.2087 116.19 84.0558C116.281 85.912 116.326 87.258 116.326 88.1141C116.326 92.5668 115.019 94.7983 112.404 94.7983C111.305 94.7983 110.407 94.3846 109.698 93.5663C108.981 92.7391 108.627 91.7492 108.627 90.5748V70.7365C108.627 69.5706 108.981 68.5818 109.698 67.7832C110.407 66.975 111.315 66.5721 112.413 66.5721C114.229 66.5721 115.491 67.4261 116.199 69.1297C117.425 67.0716 119.595 66.0422 122.7 66.0422C125.579 66.0422 127.867 66.8493 129.547 68.4554C131.263 70.1783 132.116 72.543 132.116 75.5538V90.5748ZM155.932 89.7202C155.932 91.5375 154.817 92.9795 152.582 94.0387C150.813 94.8934 148.889 95.3328 146.944 95.3265C143.12 95.3265 140.016 93.8643 137.619 90.9516C135.321 88.1717 134.168 84.7376 134.168 80.6607C134.168 76.5725 135.34 73.1209 137.691 70.293C140.043 67.4564 143.12 66.0422 146.944 66.0422C149.15 66.0422 151.048 66.3882 152.629 67.0716C154.834 67.9949 155.932 69.4368 155.932 71.3991C155.932 72.389 155.642 73.2643 155.061 74.0245C154.48 74.7745 153.734 75.1593 152.828 75.1593C152.209 75.1593 151.319 74.9381 150.158 74.5063C148.996 74.0628 148.07 73.8512 147.39 73.8512C145.582 73.8512 144.174 74.5341 143.167 75.8992C142.231 77.1306 141.759 78.708 141.759 80.6607C141.759 82.4971 142.176 84.0558 143.022 85.3155C143.956 86.7872 145.274 87.5176 146.953 87.5176C147.698 87.5176 148.714 87.2868 150.012 86.8144C151.312 86.3544 152.247 86.114 152.828 86.114C153.673 86.114 154.398 86.4979 155.016 87.2484C155.625 88.008 155.932 88.8247 155.932 89.7202ZM183.526 90.5748C183.526 91.7492 183.172 92.7391 182.464 93.5663C181.747 94.3846 180.839 94.7983 179.739 94.7983C178.087 94.7983 176.907 93.9417 176.199 92.2395C174.61 94.2983 172.439 95.3265 169.689 95.3265C166.167 95.3265 163.279 93.7588 161.044 90.643C159.011 87.7963 157.987 84.4689 157.987 80.6607C157.987 76.8524 159.011 73.525 161.044 70.6682C163.315 67.5801 166.193 66.0422 169.689 66.0422C172.439 66.0422 174.61 67.0716 176.199 69.1297C176.907 67.4261 178.087 66.5721 179.739 66.5721C180.812 66.5721 181.711 66.9846 182.438 67.8024C183.163 68.6287 183.526 69.6004 183.526 70.7365V90.5748ZM175.936 80.6607C175.936 78.8141 175.519 77.2554 174.682 75.9952C173.711 74.5628 172.403 73.8512 170.76 73.8512C169.08 73.8512 167.774 74.5628 166.837 75.9952C165.994 77.2554 165.577 78.8141 165.577 80.6607C165.577 82.4971 165.983 84.0744 166.791 85.3725C167.755 86.8049 169.08 87.5176 170.76 87.5176C172.439 87.5176 173.747 86.8049 174.682 85.3725C175.519 84.0744 175.936 82.4971 175.936 80.6607ZM202.894 70.206C202.894 71.9274 202.104 73.1102 200.524 73.7541C199.063 74.2744 197.609 74.8043 196.156 75.3507C194.566 76.3134 193.777 78.102 193.777 80.699V90.5748C193.777 91.7492 193.413 92.7391 192.707 93.5663C191.988 94.3846 191.08 94.7983 189.982 94.7983C188.875 94.7983 187.966 94.3846 187.259 93.5663C186.541 92.7391 186.187 91.7492 186.187 90.5748V70.7365C186.187 69.5706 186.541 68.5818 187.249 67.7832C187.966 66.975 188.875 66.5721 189.974 66.5721C191.789 66.5721 193.05 67.4261 193.76 69.1297C195.385 67.0716 197.129 66.0422 199.008 66.0422C200.079 66.0422 200.996 66.4549 201.759 67.2725C202.511 68.0998 202.894 69.0807 202.894 70.206ZM222.697 70.5717C222.697 72.3602 222.034 73.4855 220.719 73.9674C220.073 74.2072 218.719 74.332 216.658 74.332V90.5748C216.658 91.7492 216.295 92.7391 215.589 93.5663C214.87 94.3846 213.962 94.7983 212.864 94.7983C211.793 94.7983 210.884 94.3846 210.157 93.5663C209.432 92.7391 209.069 91.7492 209.069 90.5748V74.332C207.506 74.332 206.372 74.1204 205.655 73.7078C204.675 73.1305 204.19 72.0819 204.19 70.5717C204.19 69.0625 204.691 68.0332 205.698 67.4842C206.38 67.0801 207.506 66.8695 209.069 66.8695V63.4264C209.069 59.3778 210.329 57.3584 212.864 57.3584C215.387 57.3584 216.658 59.3778 216.658 63.4264V66.8695C218.719 66.8695 220.073 66.9943 220.719 67.2341C222.034 67.715 222.697 68.8317 222.697 70.5717ZM283.68 65.6882C283.659 63.2196 279.353 62.0991 268.204 62.0991C242.046 62.0991 235.409 60.9156 228.308 53C231.295 57.7529 232.93 66.6675 260.579 66.2239C289.425 65.7532 271.827 74.1023 266.707 83.535C275.941 74.8054 283.652 69.0514 283.68 65.724V65.6882ZM246.922 91.0375C246.921 93.3321 245.139 95.2199 242.972 95.2205C240.784 95.2205 239.014 93.3462 239.014 91.0375C239.014 91.0364 239.014 91.0353 239.014 91.0342C239.014 88.7358 240.799 86.8444 242.97 86.8444C242.971 86.8444 242.971 86.8444 242.972 86.8444C245.153 86.8444 246.922 88.7192 246.922 91.0375ZM264.936 91.0375C264.935 93.3321 263.153 95.2199 260.986 95.2205C258.8 95.2205 257.029 93.3462 257.029 91.0375C257.029 91.0364 257.029 91.0353 257.029 91.0342C257.029 88.7358 258.814 86.8444 260.984 86.8444C260.985 86.8444 260.985 86.8444 260.986 86.8444C263.167 86.8444 264.936 88.7192 264.936 91.0375Z" fill="url(#paint0_linear_4_5)"/>
<defs>
<linearGradient id="paint0_linear_4_5" x1="154.84" y1="94.9726" x2="154.84" y2="53.0001" gradientUnits="userSpaceOnUse">
<stop stop-color="#04B6F0"/>
<stop offset="1" stop-color="#3ECAF0"/>
</linearGradient>
</defs>
</svg>
